# Created by FreeCAD <https://www.freecad.org>
v 0.000000 0.000000 0.000000
v 0.000000 0.000000 100.000000
v 0.000000 100.000000 0.000000
v 0.000000 100.000000 100.000000
v 100.000000 0.000000 0.000000
v 100.000000 0.000000 100.000000
v 48.167370 48.299568 100.000000
v 48.254410 48.210335 100.000000
v 48.345787 48.125546 100.000000
v 48.084888 48.393032 100.000000
v 48.441277 48.045422 100.000000
v 48.007168 48.490490 100.000000
v 48.540642 47.970154 100.000000
v 47.934402 48.591702 100.000000
v 48.643635 47.899937 100.000000
v 47.866772 48.696411 100.000000
v 48.750000 47.834938 100.000000
v 47.804447 48.804363 100.000000
v 48.859474 47.775322 100.000000
v 47.747578 48.915291 100.000000
v 48.971783 47.721237 100.000000
v 47.696308 49.028912 100.000000
v 49.086647 47.672817 100.000000
v 47.650768 49.144951 100.000000
v 49.203785 47.630180 100.000000
v 47.611069 49.263111 100.000000
v 49.322899 47.593441 100.000000
v 47.577309 49.383106 100.000000
v 49.443699 47.562679 100.000000
v 47.549568 49.504635 100.000000
v 49.565880 47.537979 100.000000
v 47.527924 49.627396 100.000000
v 49.689140 47.519402 100.000000
v 47.512424 49.751080 100.000000
v 49.813175 47.506992 100.000000
v 47.503109 49.875385 100.000000
v 49.937672 47.500778 100.000000
v 47.500000 50.000000 100.000000
v 50.062328 47.500778 100.000000
v 47.503109 50.124615 100.000000
v 47.512424 50.248920 100.000000
v 47.527924 50.372604 100.000000
v 47.549568 50.495365 100.000000
v 47.577309 50.616894 100.000000
v 47.611069 50.736889 100.000000
v 47.650768 50.855049 100.000000
v 47.696308 50.971088 100.000000
v 47.747578 51.084709 100.000000
v 47.804447 51.195637 100.000000
v 47.866772 51.303589 100.000000
v 47.934402 51.408298 100.000000
v 48.007168 51.509510 100.000000
v 48.084888 51.606968 100.000000
v 48.167370 51.700432 100.000000
v 51.745590 48.210335 100.000000
v 51.654213 48.125546 100.000000
v 51.558723 48.045422 100.000000
v 51.459358 47.970154 100.000000
v 51.356365 47.899937 100.000000
v 51.250000 47.834938 100.000000
v 51.140526 47.775322 100.000000
v 51.028217 47.721237 100.000000
v 50.913353 47.672817 100.000000
v 50.796215 47.630180 100.000000
v 50.677101 47.593441 100.000000
v 50.556301 47.562679 100.000000
v 50.434120 47.537979 100.000000
v 50.310860 47.519402 100.000000
v 50.186825 47.506992 100.000000
v 48.254410 51.789665 100.000000
v 51.832630 48.299568 100.000000
v 48.345787 51.874454 100.000000
v 51.915112 48.393032 100.000000
v 48.441277 51.954578 100.000000
v 51.992832 48.490490 100.000000
v 48.540642 52.029846 100.000000
v 52.065598 48.591702 100.000000
v 48.643635 52.100063 100.000000
v 52.133228 48.696411 100.000000
v 48.750000 52.165062 100.000000
v 52.195553 48.804363 100.000000
v 48.859474 52.224678 100.000000
v 52.252422 48.915291 100.000000
v 48.971783 52.278763 100.000000
v 52.303692 49.028912 100.000000
v 49.086647 52.327183 100.000000
v 52.349232 49.144951 100.000000
v 49.203785 52.369820 100.000000
v 52.388931 49.263111 100.000000
v 49.322899 52.406559 100.000000
v 52.422691 49.383106 100.000000
v 49.443699 52.437321 100.000000
v 52.450432 49.504635 100.000000
v 49.565880 52.462021 100.000000
v 52.472076 49.627396 100.000000
v 49.689140 52.480598 100.000000
v 52.487576 49.751080 100.000000
v 49.813175 52.493008 100.000000
v 52.496891 49.875385 100.000000
v 49.937672 52.499222 100.000000
v 52.500000 50.000000 100.000000
v 100.000000 100.000000 100.000000
v 50.062328 52.499222 100.000000
v 50.186825 52.493008 100.000000
v 50.310860 52.480598 100.000000
v 50.434120 52.462021 100.000000
v 50.556301 52.437321 100.000000
v 50.677101 52.406559 100.000000
v 50.796215 52.369820 100.000000
v 50.913353 52.327183 100.000000
v 51.028217 52.278763 100.000000
v 51.140526 52.224678 100.000000
v 51.250000 52.165062 100.000000
v 51.356365 52.100063 100.000000
v 51.459358 52.029846 100.000000
v 51.558723 51.954578 100.000000
v 51.654213 51.874454 100.000000
v 51.745590 51.789665 100.000000
v 51.832630 51.700432 100.000000
v 51.915112 51.606968 100.000000
v 51.992832 51.509510 100.000000
v 52.065598 51.408298 100.000000
v 52.133228 51.303589 100.000000
v 52.195553 51.195637 100.000000
v 52.252422 51.084709 100.000000
v 52.303692 50.971088 100.000000
v 52.349232 50.855049 100.000000
v 52.388931 50.736889 100.000000
v 52.422691 50.616894 100.000000
v 52.450432 50.495365 100.000000
v 52.472076 50.372604 100.000000
v 52.487576 50.248920 100.000000
v 52.496891 50.124615 100.000000
v 100.000000 100.000000 0.000000
v 48.167370 48.299568 0.000000
v 48.254410 48.210335 0.000000
v 48.345787 48.125546 0.000000
v 48.084888 48.393032 0.000000
v 48.441277 48.045422 0.000000
v 48.007168 48.490490 0.000000
v 48.540642 47.970154 0.000000
v 47.934402 48.591702 0.000000
v 48.643635 47.899937 0.000000
v 47.866772 48.696411 0.000000
v 48.750000 47.834938 0.000000
v 47.804447 48.804363 0.000000
v 48.859474 47.775322 0.000000
v 47.747578 48.915291 0.000000
v 48.971783 47.721237 0.000000
v 47.696308 49.028912 0.000000
v 49.086647 47.672817 0.000000
v 47.650768 49.144951 0.000000
v 49.203785 47.630180 0.000000
v 47.611069 49.263111 0.000000
v 49.322899 47.593441 0.000000
v 47.577309 49.383106 0.000000
v 49.443699 47.562679 0.000000
v 47.549568 49.504635 0.000000
v 49.565880 47.537979 0.000000
v 47.527924 49.627396 0.000000
v 49.689140 47.519402 0.000000
v 47.512424 49.751080 0.000000
v 49.813175 47.506992 0.000000
v 47.503109 49.875385 0.000000
v 49.937672 47.500778 0.000000
v 47.500000 50.000000 0.000000
v 50.062328 47.500778 0.000000
v 47.503109 50.124615 0.000000
v 47.512424 50.248920 0.000000
v 47.527924 50.372604 0.000000
v 47.549568 50.495365 0.000000
v 47.577309 50.616894 0.000000
v 47.611069 50.736889 0.000000
v 47.650768 50.855049 0.000000
v 47.696308 50.971088 0.000000
v 47.747578 51.084709 0.000000
v 47.804447 51.195637 0.000000
v 47.866772 51.303589 0.000000
v 47.934402 51.408298 0.000000
v 48.007168 51.509510 0.000000
v 48.084888 51.606968 0.000000
v 48.167370 51.700432 0.000000
v 51.745590 48.210335 0.000000
v 51.654213 48.125546 0.000000
v 51.558723 48.045422 0.000000
v 51.459358 47.970154 0.000000
v 51.356365 47.899937 0.000000
v 51.250000 47.834938 0.000000
v 51.140526 47.775322 0.000000
v 51.028217 47.721237 0.000000
v 50.913353 47.672817 0.000000
v 50.796215 47.630180 0.000000
v 50.677101 47.593441 0.000000
v 50.556301 47.562679 0.000000
v 50.434120 47.537979 0.000000
v 50.310860 47.519402 0.000000
v 50.186825 47.506992 0.000000
v 48.254410 51.789665 0.000000
v 51.832630 48.299568 0.000000
v 48.345787 51.874454 0.000000
v 51.915112 48.393032 0.000000
v 48.441277 51.954578 0.000000
v 51.992832 48.490490 0.000000
v 48.540642 52.029846 0.000000
v 52.065598 48.591702 0.000000
v 48.643635 52.100063 0.000000
v 52.133228 48.696411 0.000000
v 48.750000 52.165062 0.000000
v 52.195553 48.804363 0.000000
v 48.859474 52.224678 0.000000
v 52.252422 48.915291 0.000000
v 48.971783 52.278763 0.000000
v 52.303692 49.028912 0.000000
v 49.086647 52.327183 0.000000
v 52.349232 49.144951 0.000000
v 49.203785 52.369820 0.000000
v 52.388931 49.263111 0.000000
v 49.322899 52.406559 0.000000
v 52.422691 49.383106 0.000000
v 49.443699 52.437321 0.000000
v 52.450432 49.504635 0.000000
v 49.565880 52.462021 0.000000
v 52.472076 49.627396 0.000000
v 49.689140 52.480598 0.000000
v 52.487576 49.751080 0.000000
v 49.813175 52.493008 0.000000
v 52.496891 49.875385 0.000000
v 49.937672 52.499222 0.000000
v 52.500000 50.000000 0.000000
v 50.062328 52.499222 0.000000
v 50.186825 52.493008 0.000000
v 50.310860 52.480598 0.000000
v 50.434120 52.462021 0.000000
v 50.556301 52.437321 0.000000
v 50.677101 52.406559 0.000000
v 50.796215 52.369820 0.000000
v 50.913353 52.327183 0.000000
v 51.028217 52.278763 0.000000
v 51.140526 52.224678 0.000000
v 51.250000 52.165062 0.000000
v 51.356365 52.100063 0.000000
v 51.459358 52.029846 0.000000
v 51.558723 51.954578 0.000000
v 51.654213 51.874454 0.000000
v 51.745590 51.789665 0.000000
v 51.832630 51.700432 0.000000
v 51.915112 51.606968 0.000000
v 51.992832 51.509510 0.000000
v 52.065598 51.408298 0.000000
v 52.133228 51.303589 0.000000
v 52.195553 51.195637 0.000000
v 52.252422 51.084709 0.000000
v 52.303692 50.971088 0.000000
v 52.349232 50.855049 0.000000
v 52.388931 50.736889 0.000000
v 52.422691 50.616894 0.000000
v 52.450432 50.495365 0.000000
v 52.472076 50.372604 0.000000
v 52.487576 50.248920 0.000000
v 52.496891 50.124615 0.000000
v 0.000000 0.000000 0.000000
v 0.000000 0.000000 100.000000
v 0.000000 100.000000 0.000000
v 0.000000 100.000000 100.000000
v 40.000000 0.000000 50.000000
v 100.000000 0.000000 0.000000
v 60.000000 -0.000000 50.000000
v 40.000000 0.000000 100.000000
v 100.000000 0.000000 100.000000
v 60.000000 -0.000000 100.000000
v 40.012432 0.498459 100.000000
v 40.049694 0.995678 100.000000
v 40.111691 1.490423 100.000000
v 40.198277 1.981461 100.000000
v 40.309227 2.467574 100.000000
v 40.444271 2.947552 100.000000
v 40.603073 3.420202 100.000000
v 40.785236 3.884348 100.000000
v 40.990311 4.338838 100.000000
v 41.217785 4.782540 100.000000
v 41.467091 5.214352 100.000000
v 41.737614 5.633201 100.000000
v 42.028675 6.038044 100.000000
v 42.339554 6.427876 100.000000
v 42.669483 6.801727 100.000000
v 43.017632 7.158669 100.000000
v 43.383141 7.497812 100.000000
v 43.765102 7.818315 100.000000
v 44.162563 8.119380 100.000000
v 44.574539 8.400259 100.000000
v 45.000000 8.660254 100.000000
v 45.437893 8.898718 100.000000
v 45.887131 9.115059 100.000000
v 46.346588 9.308738 100.000000
v 46.815132 9.479274 100.000000
v 47.291595 9.626243 100.000000
v 47.774792 9.749279 100.000000
v 48.263519 9.848078 100.000000
v 48.756561 9.922392 100.000000
v 49.252701 9.972038 100.000000
v 49.750694 9.996892 100.000000
v 50.249306 9.996892 100.000000
v 55.837437 8.119380 100.000000
v 56.234898 7.818315 100.000000
v 56.616859 7.497812 100.000000
v 56.982368 7.158669 100.000000
v 57.330517 6.801727 100.000000
v 57.660446 6.427876 100.000000
v 57.971325 6.038044 100.000000
v 58.262386 5.633201 100.000000
v 58.532909 5.214352 100.000000
v 58.782215 4.782540 100.000000
v 59.009689 4.338838 100.000000
v 59.214764 3.884348 100.000000
v 59.396927 3.420202 100.000000
v 59.555729 2.947552 100.000000
v 59.690773 2.467574 100.000000
v 59.801723 1.981461 100.000000
v 59.888309 1.490423 100.000000
v 59.950306 0.995678 100.000000
v 59.987568 0.498459 100.000000
v 100.000000 100.000000 100.000000
v 50.747299 9.972038 100.000000
v 51.243439 9.922392 100.000000
v 51.736481 9.848078 100.000000
v 52.225208 9.749279 100.000000
v 52.708405 9.626243 100.000000
v 53.184868 9.479274 100.000000
v 53.653412 9.308738 100.000000
v 54.112869 9.115059 100.000000
v 54.562107 8.898718 100.000000
v 55.000000 8.660254 100.000000
v 55.425461 8.400259 100.000000
v 100.000000 100.000000 0.000000
v 59.987568 0.498459 50.000000
v 59.950306 0.995678 50.000000
v 59.888309 1.490423 50.000000
v 59.801723 1.981461 50.000000
v 59.690773 2.467574 50.000000
v 59.555729 2.947552 50.000000
v 59.396927 3.420202 50.000000
v 59.214764 3.884348 50.000000
v 59.009689 4.338838 50.000000
v 58.782215 4.782540 50.000000
v 58.532909 5.214352 50.000000
v 58.262386 5.633201 50.000000
v 57.971325 6.038044 50.000000
v 57.660446 6.427876 50.000000
v 57.330517 6.801727 50.000000
v 56.982368 7.158669 50.000000
v 56.616859 7.497812 50.000000
v 56.234898 7.818315 50.000000
v 55.837437 8.119380 50.000000
v 55.425461 8.400259 50.000000
v 55.000000 8.660254 50.000000
v 54.562107 8.898718 50.000000
v 54.112869 9.115059 50.000000
v 53.653412 9.308738 50.000000
v 53.184868 9.479274 50.000000
v 52.708405 9.626243 50.000000
v 52.225208 9.749279 50.000000
v 51.736481 9.848078 50.000000
v 51.243439 9.922392 50.000000
v 50.747299 9.972038 50.000000
v 50.249306 9.996892 50.000000
v 49.750694 9.996892 50.000000
v 49.252701 9.972038 50.000000
v 48.756561 9.922392 50.000000
v 48.263519 9.848078 50.000000
v 47.774792 9.749279 50.000000
v 47.291595 9.626243 50.000000
v 46.815132 9.479274 50.000000
v 46.346588 9.308738 50.000000
v 45.887131 9.115059 50.000000
v 45.437893 8.898718 50.000000
v 45.000000 8.660254 50.000000
v 44.574539 8.400259 50.000000
v 44.162563 8.119380 50.000000
v 43.765102 7.818315 50.000000
v 43.383141 7.497812 50.000000
v 43.017632 7.158669 50.000000
v 42.669483 6.801727 50.000000
v 42.339554 6.427876 50.000000
v 42.028675 6.038044 50.000000
v 41.737614 5.633201 50.000000
v 41.467091 5.214352 50.000000
v 41.217785 4.782540 50.000000
v 40.990311 4.338838 50.000000
v 40.785236 3.884348 50.000000
v 40.603073 3.420202 50.000000
v 40.444271 2.947552 50.000000
v 40.309227 2.467574 50.000000
v 40.198277 1.981461 50.000000
v 40.111691 1.490423 50.000000
v 40.049694 0.995678 50.000000
v 40.012432 0.498459 50.000000
vn -1.000000 0.000000 0.000000
vn -1.000000 0.000000 0.000000
vn 0.000000 -1.000000 0.000000
vn 0.000000 -1.000000 0.000000
vn 0.000000 0.000000 1.000000
vn 0.000000 0.000000 1.000000
vn 0.000000 0.000000 1.000000
vn 0.000000 0.000000 1.000000
vn 0.000000 0.000000 1.000000
vn 0.000000 0.000000 1.000000
vn 0.000000 0.000000 1.000000
vn 0.000000 0.000000 1.000000
vn 0.000000 0.000000 1.000000
vn 0.000000 0.000000 1.000000
vn 0.000000 0.000000 1.000000
vn 0.000000 0.000000 1.000000
vn 0.000000 0.000000 1.000000
vn 0.000000 0.000000 1.000000
vn 0.000000 0.000000 1.000000
vn 0.000000 0.000000 1.000000
vn 0.000000 0.000000 1.000000
vn 0.000000 0.000000 1.000000
vn 0.000000 0.000000 1.000000
vn 0.000000 0.000000 1.000000
vn 0.000000 0.000000 1.000000
vn 0.000000 0.000000 1.000000
vn 0.000000 0.000000 1.000000
vn 0.000000 0.000000 1.000000
vn 0.000000 0.000000 1.000000
vn 0.000000 0.000000 1.000000
vn 0.000000 0.000000 1.000000
vn 0.000000 0.000000 1.000000
vn 0.000000 0.000000 1.000000
vn 0.000000 0.000000 1.000000
vn 0.000000 0.000000 1.000000
vn 0.000000 0.000000 1.000000
vn 0.000000 0.000000 1.000000
vn 0.000000 0.000000 1.000000
vn 0.000000 0.000000 1.000000
vn 0.000000 0.000000 1.000000
vn 0.000000 0.000000 1.000000
vn 0.000000 0.000000 1.000000
vn 0.000000 0.000000 1.000000
vn 0.000000 0.000000 1.000000
vn 0.000000 0.000000 1.000000
vn 0.000000 0.000000 1.000000
vn 0.000000 0.000000 1.000000
vn 0.000000 0.000000 1.000000
vn 0.000000 0.000000 1.000000
vn 0.000000 0.000000 1.000000
vn 0.000000 0.000000 1.000000
vn 0.000000 0.000000 1.000000
vn 0.000000 0.000000 1.000000
vn 0.000000 0.000000 1.000000
vn 0.000000 0.000000 1.000000
vn 0.000000 0.000000 1.000000
vn 0.000000 0.000000 1.000000
vn 0.000000 0.000000 1.000000
vn 0.000000 0.000000 1.000000
vn 0.000000 0.000000 1.000000
vn 0.000000 0.000000 1.000000
vn 0.000000 0.000000 1.000000
vn 0.000000 0.000000 1.000000
vn 0.000000 0.000000 1.000000
vn 0.000000 0.000000 1.000000
vn 0.000000 0.000000 1.000000
vn 0.000000 0.000000 1.000000
vn 0.000000 0.000000 1.000000
vn 0.000000 0.000000 1.000000
vn 0.000000 0.000000 1.000000
vn 0.000000 0.000000 1.000000
vn 0.000000 0.000000 1.000000
vn 0.000000 0.000000 1.000000
vn 0.000000 0.000000 1.000000
vn 0.000000 0.000000 1.000000
vn 0.000000 0.000000 1.000000
vn 0.000000 0.000000 1.000000
vn 0.000000 0.000000 1.000000
vn 0.000000 0.000000 1.000000
vn 0.000000 0.000000 1.000000
vn 0.000000 0.000000 1.000000
vn 0.000000 0.000000 1.000000
vn 0.000000 0.000000 1.000000
vn 0.000000 0.000000 1.000000
vn 0.000000 0.000000 1.000000
vn 0.000000 0.000000 1.000000
vn 0.000000 0.000000 1.000000
vn 0.000000 0.000000 1.000000
vn 0.000000 0.000000 1.000000
vn 0.000000 0.000000 1.000000
vn 0.000000 0.000000 1.000000
vn 0.000000 0.000000 1.000000
vn 0.000000 0.000000 1.000000
vn 0.000000 0.000000 1.000000
vn 0.000000 0.000000 1.000000
vn 0.000000 0.000000 1.000000
vn 0.000000 0.000000 1.000000
vn 0.000000 0.000000 1.000000
vn 0.000000 0.000000 1.000000
vn 0.000000 0.000000 1.000000
vn 0.000000 0.000000 1.000000
vn 0.000000 0.000000 1.000000
vn 0.000000 0.000000 1.000000
vn 0.000000 0.000000 1.000000
vn 0.000000 0.000000 1.000000
vn 0.000000 0.000000 1.000000
vn 0.000000 0.000000 1.000000
vn 0.000000 0.000000 1.000000
vn 0.000000 0.000000 1.000000
vn 0.000000 0.000000 1.000000
vn 0.000000 0.000000 1.000000
vn 0.000000 0.000000 1.000000
vn 0.000000 0.000000 1.000000
vn 0.000000 0.000000 1.000000
vn 0.000000 0.000000 1.000000
vn 0.000000 0.000000 1.000000
vn 0.000000 0.000000 1.000000
vn 0.000000 0.000000 1.000000
vn 0.000000 0.000000 1.000000
vn 0.000000 0.000000 1.000000
vn 0.000000 0.000000 1.000000
vn 0.000000 0.000000 1.000000
vn 0.000000 0.000000 1.000000
vn 0.000000 0.000000 1.000000
vn 0.000000 0.000000 1.000000
vn 0.000000 0.000000 1.000000
vn 0.000000 0.000000 1.000000
vn 0.000000 0.000000 1.000000
vn 0.000000 0.000000 1.000000
vn 0.000000 0.000000 1.000000
vn 0.000000 0.000000 1.000000
vn 0.000000 0.000000 1.000000
vn 0.000000 0.000000 1.000000
vn 0.000000 0.000000 1.000000
vn 0.000000 1.000000 0.000000
vn 0.000000 1.000000 0.000000
vn 0.000000 0.000000 -1.000000
vn 0.000000 -0.000000 -1.000000
vn 0.000000 0.000000 -1.000000
vn 0.000000 -0.000000 -1.000000
vn 0.000000 0.000000 -1.000000
vn 0.000000 -0.000000 -1.000000
vn 0.000000 0.000000 -1.000000
vn 0.000000 -0.000000 -1.000000
vn 0.000000 0.000000 -1.000000
vn 0.000000 -0.000000 -1.000000
vn 0.000000 0.000000 -1.000000
vn 0.000000 -0.000000 -1.000000
vn 0.000000 0.000000 -1.000000
vn 0.000000 -0.000000 -1.000000
vn 0.000000 0.000000 -1.000000
vn 0.000000 -0.000000 -1.000000
vn 0.000000 0.000000 -1.000000
vn 0.000000 -0.000000 -1.000000
vn 0.000000 0.000000 -1.000000
vn 0.000000 -0.000000 -1.000000
vn 0.000000 0.000000 -1.000000
vn 0.000000 -0.000000 -1.000000
vn 0.000000 0.000000 -1.000000
vn 0.000000 -0.000000 -1.000000
vn 0.000000 0.000000 -1.000000
vn 0.000000 -0.000000 -1.000000
vn 0.000000 0.000000 -1.000000
vn 0.000000 -0.000000 -1.000000
vn 0.000000 0.000000 -1.000000
vn 0.000000 -0.000000 -1.000000
vn 0.000000 0.000000 -1.000000
vn 0.000000 -0.000000 -1.000000
vn 0.000000 0.000000 -1.000000
vn 0.000000 0.000000 -1.000000
vn 0.000000 0.000000 -1.000000
vn 0.000000 0.000000 -1.000000
vn 0.000000 0.000000 -1.000000
vn 0.000000 0.000000 -1.000000
vn 0.000000 0.000000 -1.000000
vn 0.000000 0.000000 -1.000000
vn 0.000000 0.000000 -1.000000
vn 0.000000 0.000000 -1.000000
vn 0.000000 0.000000 -1.000000
vn 0.000000 0.000000 -1.000000
vn 0.000000 0.000000 -1.000000
vn 0.000000 0.000000 -1.000000
vn 0.000000 0.000000 -1.000000
vn 0.000000 0.000000 -1.000000
vn 0.000000 -0.000000 -1.000000
vn 0.000000 -0.000000 -1.000000
vn 0.000000 -0.000000 -1.000000
vn 0.000000 -0.000000 -1.000000
vn 0.000000 -0.000000 -1.000000
vn 0.000000 -0.000000 -1.000000
vn 0.000000 -0.000000 -1.000000
vn 0.000000 -0.000000 -1.000000
vn 0.000000 -0.000000 -1.000000
vn 0.000000 -0.000000 -1.000000
vn 0.000000 -0.000000 -1.000000
vn 0.000000 -0.000000 -1.000000
vn 0.000000 -0.000000 -1.000000
vn 0.000000 -0.000000 -1.000000
vn 0.000000 -0.000000 -1.000000
vn 0.000000 -0.000000 -1.000000
vn 0.000000 0.000000 -1.000000
vn 0.000000 0.000000 -1.000000
vn 0.000000 0.000000 -1.000000
vn 0.000000 0.000000 -1.000000
vn 0.000000 0.000000 -1.000000
vn 0.000000 0.000000 -1.000000
vn 0.000000 0.000000 -1.000000
vn 0.000000 0.000000 -1.000000
vn 0.000000 0.000000 -1.000000
vn 0.000000 0.000000 -1.000000
vn 0.000000 0.000000 -1.000000
vn 0.000000 0.000000 -1.000000
vn 0.000000 0.000000 -1.000000
vn 0.000000 0.000000 -1.000000
vn 0.000000 0.000000 -1.000000
vn 0.000000 0.000000 -1.000000
vn 0.000000 0.000000 -1.000000
vn 0.000000 0.000000 -1.000000
vn 0.000000 0.000000 -1.000000
vn 0.000000 0.000000 -1.000000
vn 0.000000 0.000000 -1.000000
vn 0.000000 0.000000 -1.000000
vn 0.000000 0.000000 -1.000000
vn 0.000000 0.000000 -1.000000
vn 0.000000 0.000000 -1.000000
vn 0.000000 0.000000 -1.000000
vn 0.000000 0.000000 -1.000000
vn 0.000000 0.000000 -1.000000
vn 0.000000 0.000000 -1.000000
vn 0.000000 0.000000 -1.000000
vn 0.000000 0.000000 -1.000000
vn 0.000000 0.000000 -1.000000
vn 0.000000 0.000000 -1.000000
vn 0.000000 0.000000 -1.000000
vn 0.000000 0.000000 -1.000000
vn 0.000000 0.000000 -1.000000
vn 0.000000 0.000000 -1.000000
vn 0.000000 0.000000 -1.000000
vn 0.000000 0.000000 -1.000000
vn 0.000000 0.000000 -1.000000
vn 0.000000 0.000000 -1.000000
vn 0.000000 0.000000 -1.000000
vn 0.000000 0.000000 -1.000000
vn 0.000000 0.000000 -1.000000
vn 0.000000 0.000000 -1.000000
vn 0.000000 0.000000 -1.000000
vn 0.000000 0.000000 -1.000000
vn 0.000000 0.000000 -1.000000
vn 0.000000 0.000000 -1.000000
vn 0.000000 0.000000 -1.000000
vn 0.000000 0.000000 -1.000000
vn 0.000000 0.000000 -1.000000
vn 0.000000 0.000000 -1.000000
vn 0.000000 0.000000 -1.000000
vn 0.000000 0.000000 -1.000000
vn 0.000000 0.000000 -1.000000
vn 0.000000 0.000000 -1.000000
vn 0.000000 0.000000 -1.000000
vn 0.000000 0.000000 -1.000000
vn 0.000000 0.000000 -1.000000
vn 0.000000 0.000000 -1.000000
vn 0.000000 0.000000 -1.000000
vn 0.000000 0.000000 -1.000000
vn 0.000000 0.000000 -1.000000
vn 0.000000 0.000000 -1.000000
vn 0.000000 0.000000 -1.000000
vn 1.000000 0.000000 0.000000
vn 1.000000 -0.000000 0.000000
vn 0.999689 -0.024941 0.000000
vn 0.999689 -0.024941 0.000000
vn 0.997204 -0.074731 0.000000
vn 0.997204 -0.074731 0.000000
vn 0.992240 -0.124340 0.000000
vn 0.984810 -0.173637 0.000000
vn 0.992240 -0.124340 0.000000
vn 0.984810 -0.173637 0.000000
vn 0.974924 -0.222539 0.000000
vn 0.974924 -0.222539 0.000000
vn 0.962627 -0.270831 0.000000
vn 0.947928 -0.318485 0.000000
vn 0.962627 -0.270831 0.000000
vn 0.930880 -0.365326 0.000000
vn 0.947928 -0.318485 0.000000
vn 0.930880 -0.365326 0.000000
vn 0.911500 -0.411300 0.000000
vn 0.911500 -0.411300 0.000000
vn 0.889871 -0.456212 0.000000
vn 0.889871 -0.456212 0.000000
vn 0.866031 -0.499990 0.000000
vn 0.866031 -0.499990 0.000000
vn 0.840018 -0.542558 0.000000
vn 0.840018 -0.542558 0.000000
vn 0.811941 -0.583739 0.000000
vn 0.811941 -0.583739 0.000000
vn 0.781829 -0.623493 0.000000
vn 0.781829 -0.623493 0.000000
vn 0.749785 -0.661681 0.000000
vn 0.749785 -0.661681 0.000000
vn 0.715850 -0.698254 0.000000
vn 0.715850 -0.698254 0.000000
vn 0.680188 -0.733038 0.000000
vn 0.680188 -0.733038 0.000000
vn 0.642781 -0.766050 0.000000
vn 0.642781 -0.766050 0.000000
vn 0.603812 -0.797127 0.000000
vn 0.603812 -0.797127 0.000000
vn 0.563307 -0.826247 0.000000
vn 0.563307 -0.826247 0.000000
vn 0.521436 -0.853290 0.000000
vn 0.521436 -0.853290 0.000000
vn 0.478252 -0.878223 0.000000
vn 0.478252 -0.878223 0.000000
vn 0.433883 -0.900969 0.000000
vn 0.433883 -0.900969 0.000000
vn 0.388439 -0.921475 0.000000
vn 0.388439 -0.921475 0.000000
vn 0.342035 -0.939687 0.000000
vn 0.342035 -0.939687 0.000000
vn 0.294737 -0.955578 0.000000
vn 0.246774 -0.969073 0.000000
vn 0.294737 -0.955578 0.000000
vn 0.198152 -0.980171 0.000000
vn 0.246774 -0.969073 0.000000
vn 0.198152 -0.980171 0.000000
vn 0.149035 -0.988832 0.000000
vn 0.149035 -0.988832 0.000000
vn 0.099549 -0.995033 0.000000
vn 0.099549 -0.995033 0.000000
vn 0.049852 -0.998757 0.000000
vn 0.049852 -0.998757 0.000000
vn 0.000000 -1.000000 0.000000
vn 0.000000 -1.000000 0.000000
vn -0.049852 -0.998757 0.000000
vn -0.049852 -0.998757 0.000000
vn -0.099549 -0.995033 0.000000
vn -0.149035 -0.988832 -0.000000
vn -0.099549 -0.995033 0.000000
vn -0.149035 -0.988832 0.000000
vn -0.198152 -0.980171 0.000000
vn -0.198152 -0.980171 0.000000
vn -0.246774 -0.969073 -0.000000
vn -0.246774 -0.969073 0.000000
vn -0.294737 -0.955578 -0.000000
vn -0.294737 -0.955578 0.000000
vn -0.342035 -0.939687 0.000000
vn -0.342035 -0.939687 0.000000
vn -0.388439 -0.921475 0.000000
vn -0.388439 -0.921475 0.000000
vn -0.433883 -0.900969 0.000000
vn -0.433883 -0.900969 0.000000
vn -0.478252 -0.878223 0.000000
vn -0.478252 -0.878223 0.000000
vn -0.521436 -0.853290 0.000000
vn -0.521436 -0.853290 0.000000
vn -0.563307 -0.826247 0.000000
vn -0.563307 -0.826247 0.000000
vn -0.603812 -0.797127 0.000000
vn -0.603812 -0.797127 0.000000
vn -0.642781 -0.766050 0.000000
vn -0.642781 -0.766050 0.000000
vn -0.680188 -0.733038 0.000000
vn -0.680188 -0.733038 0.000000
vn -0.715850 -0.698254 -0.000000
vn -0.715850 -0.698254 0.000000
vn -0.749785 -0.661681 0.000000
vn -0.749785 -0.661681 0.000000
vn -0.781829 -0.623493 -0.000000
vn -0.781829 -0.623493 0.000000
vn -0.811941 -0.583739 0.000000
vn -0.811941 -0.583739 0.000000
vn -0.840018 -0.542558 0.000000
vn -0.840018 -0.542558 0.000000
vn -0.866031 -0.499990 0.000000
vn -0.866031 -0.499990 0.000000
vn -0.889871 -0.456212 0.000000
vn -0.889871 -0.456212 0.000000
vn -0.911500 -0.411300 -0.000000
vn -0.911500 -0.411300 0.000000
vn -0.930880 -0.365326 0.000000
vn -0.930880 -0.365326 0.000000
vn -0.947928 -0.318485 0.000000
vn -0.947928 -0.318485 0.000000
vn -0.962627 -0.270831 0.000000
vn -0.962627 -0.270831 0.000000
vn -0.974924 -0.222539 0.000000
vn -0.974924 -0.222539 0.000000
vn -0.984810 -0.173637 0.000000
vn -0.984810 -0.173637 0.000000
vn -0.992240 -0.124340 0.000000
vn -0.992240 -0.124340 0.000000
vn -0.997204 -0.074731 0.000000
vn -0.997204 -0.074731 0.000000
vn -0.999689 -0.024941 0.000000
vn -0.999689 -0.024941 0.000000
vn -0.999689 0.024941 0.000000
vn -0.999689 0.024941 0.000000
vn -0.997204 0.074731 0.000000
vn -0.997204 0.074731 0.000000
vn -0.992240 0.124340 0.000000
vn -0.992240 0.124340 0.000000
vn -0.984810 0.173637 0.000000
vn -0.984810 0.173637 0.000000
vn -0.974924 0.222539 0.000000
vn -0.974924 0.222539 0.000000
vn -0.962627 0.270831 0.000000
vn -0.962627 0.270831 0.000000
vn -0.947928 0.318485 0.000000
vn -0.947928 0.318485 0.000000
vn -0.930880 0.365326 0.000000
vn -0.930880 0.365326 0.000000
vn -0.911500 0.411300 0.000000
vn -0.911500 0.411300 0.000000
vn -0.889871 0.456212 0.000000
vn -0.889871 0.456212 0.000000
vn -0.840018 0.542558 0.000000
vn -0.866031 0.499990 0.000000
vn -0.866031 0.499990 0.000000
vn -0.840018 0.542558 0.000000
vn -0.811941 0.583739 0.000000
vn -0.811941 0.583739 0.000000
vn -0.781829 0.623493 0.000000
vn -0.781829 0.623493 0.000000
vn -0.749785 0.661681 0.000000
vn -0.749785 0.661681 0.000000
vn -0.715850 0.698254 0.000000
vn -0.715850 0.698254 0.000000
vn -0.680188 0.733038 0.000000
vn -0.680188 0.733038 0.000000
vn -0.642781 0.766050 0.000000
vn -0.642781 0.766050 0.000000
vn -0.603812 0.797127 0.000000
vn -0.563307 0.826247 0.000000
vn -0.603812 0.797127 0.000000
vn -0.563307 0.826247 0.000000
vn -0.521436 0.853290 0.000000
vn -0.521436 0.853290 0.000000
vn -0.478252 0.878223 0.000000
vn -0.478252 0.878223 0.000000
vn -0.433883 0.900969 0.000000
vn -0.388439 0.921475 0.000000
vn -0.433883 0.900969 0.000000
vn -0.388439 0.921475 0.000000
vn -0.342035 0.939687 0.000000
vn -0.342035 0.939687 0.000000
vn -0.294737 0.955578 0.000000
vn -0.294737 0.955578 0.000000
vn -0.246774 0.969073 0.000000
vn -0.246774 0.969073 0.000000
vn -0.198152 0.980171 0.000000
vn -0.198152 0.980171 0.000000
vn -0.149035 0.988832 0.000000
vn -0.149035 0.988832 0.000000
vn -0.099549 0.995033 0.000000
vn -0.049852 0.998757 0.000000
vn -0.099549 0.995033 0.000000
vn -0.049852 0.998757 0.000000
vn 0.000000 1.000000 0.000000
vn 0.000000 1.000000 -0.000000
vn 0.049852 0.998757 0.000000
vn 0.049852 0.998757 -0.000000
vn 0.099549 0.995033 0.000000
vn 0.099549 0.995033 -0.000000
vn 0.149035 0.988832 0.000000
vn 0.149035 0.988832 -0.000000
vn 0.198152 0.980171 0.000000
vn 0.198152 0.980171 -0.000000
vn 0.246774 0.969073 0.000000
vn 0.246774 0.969073 -0.000000
vn 0.294737 0.955578 0.000000
vn 0.294737 0.955578 -0.000000
vn 0.342035 0.939687 0.000000
vn 0.342035 0.939687 -0.000000
vn 0.388439 0.921475 0.000000
vn 0.388439 0.921475 -0.000000
vn 0.433883 0.900969 0.000000
vn 0.433883 0.900969 -0.000000
vn 0.478252 0.878223 0.000000
vn 0.478252 0.878223 -0.000000
vn 0.521436 0.853290 0.000000
vn 0.521436 0.853290 -0.000000
vn 0.563307 0.826247 0.000000
vn 0.563307 0.826247 -0.000000
vn 0.603812 0.797127 0.000000
vn 0.642781 0.766050 0.000000
vn 0.603812 0.797127 -0.000000
vn 0.642781 0.766050 0.000000
vn 0.680188 0.733038 0.000000
vn 0.715850 0.698254 0.000000
vn 0.680188 0.733038 -0.000000
vn 0.715850 0.698254 0.000000
vn 0.749785 0.661681 -0.000000
vn 0.749785 0.661681 0.000000
vn 0.781829 0.623493 0.000000
vn 0.781829 0.623493 0.000000
vn 0.811941 0.583739 -0.000000
vn 0.811941 0.583739 0.000000
vn 0.840018 0.542558 -0.000000
vn 0.840018 0.542558 0.000000
vn 0.866031 0.499990 -0.000000
vn 0.866031 0.499990 0.000000
vn 0.889871 0.456212 -0.000000
vn 0.889871 0.456212 0.000000
vn 0.911500 0.411300 -0.000000
vn 0.911500 0.411300 0.000000
vn 0.930880 0.365326 0.000000
vn 0.930880 0.365326 0.000000
vn 0.947928 0.318485 -0.000000
vn 0.947928 0.318485 0.000000
vn 0.962627 0.270831 0.000000
vn 0.962627 0.270831 0.000000
vn 0.974924 0.222539 -0.000000
vn 0.974924 0.222539 0.000000
vn 0.984810 0.173637 0.000000
vn 0.984810 0.173637 0.000000
vn 0.992240 0.124340 0.000000
vn 0.992240 0.124340 -0.000000
vn 0.997204 0.074731 0.000000
vn 0.997204 0.074731 -0.000000
vn 0.999689 0.024941 0.000000
vn 0.999689 0.024941 -0.000000
vn -1.000000 0.000000 0.000000
vn -1.000000 0.000000 0.000000
vn 0.000000 -1.000000 0.000000
vn 0.000000 -1.000000 0.000000
vn -0.000000 -1.000000 -0.000000
vn 0.000000 -1.000000 -0.000000
vn 0.000000 -1.000000 0.000000
vn 0.000000 -1.000000 0.000000
vn 0.000000 0.000000 1.000000
vn 0.000000 0.000000 1.000000
vn 0.000000 0.000000 1.000000
vn 0.000000 0.000000 1.000000
vn 0.000000 0.000000 1.000000
vn 0.000000 0.000000 1.000000
vn 0.000000 0.000000 1.000000
vn 0.000000 0.000000 1.000000
vn 0.000000 0.000000 1.000000
vn 0.000000 0.000000 1.000000
vn 0.000000 0.000000 1.000000
vn 0.000000 0.000000 1.000000
vn 0.000000 0.000000 1.000000
vn 0.000000 0.000000 1.000000
vn 0.000000 0.000000 1.000000
vn 0.000000 0.000000 1.000000
vn 0.000000 0.000000 1.000000
vn 0.000000 0.000000 1.000000
vn 0.000000 0.000000 1.000000
vn 0.000000 0.000000 1.000000
vn 0.000000 0.000000 1.000000
vn 0.000000 0.000000 1.000000
vn 0.000000 0.000000 1.000000
vn 0.000000 0.000000 1.000000
vn 0.000000 0.000000 1.000000
vn 0.000000 0.000000 1.000000
vn 0.000000 0.000000 1.000000
vn 0.000000 0.000000 1.000000
vn 0.000000 0.000000 1.000000
vn 0.000000 0.000000 1.000000
vn 0.000000 0.000000 1.000000
vn 0.000000 0.000000 1.000000
vn 0.000000 0.000000 1.000000
vn 0.000000 0.000000 1.000000
vn 0.000000 0.000000 1.000000
vn 0.000000 0.000000 1.000000
vn 0.000000 0.000000 1.000000
vn 0.000000 0.000000 1.000000
vn 0.000000 0.000000 1.000000
vn 0.000000 0.000000 1.000000
vn 0.000000 0.000000 1.000000
vn 0.000000 0.000000 1.000000
vn 0.000000 0.000000 1.000000
vn 0.000000 0.000000 1.000000
vn 0.000000 0.000000 1.000000
vn 0.000000 0.000000 1.000000
vn 0.000000 0.000000 1.000000
vn 0.000000 0.000000 1.000000
vn 0.000000 0.000000 1.000000
vn 0.000000 0.000000 1.000000
vn 0.000000 0.000000 1.000000
vn 0.000000 0.000000 1.000000
vn 0.000000 0.000000 1.000000
vn 0.000000 0.000000 1.000000
vn 0.000000 0.000000 1.000000
vn 0.000000 0.000000 1.000000
vn 0.000000 0.000000 1.000000
vn 0.000000 0.000000 1.000000
vn 0.000000 0.000000 1.000000
vn 0.000000 0.000000 1.000000
vn 0.000000 0.000000 1.000000
vn 0.000000 0.000000 1.000000
vn 0.000000 0.000000 1.000000
vn 0.000000 0.000000 1.000000
vn 0.000000 0.000000 1.000000
vn 0.000000 0.000000 1.000000
vn 0.000000 1.000000 0.000000
vn 0.000000 1.000000 0.000000
vn 0.000000 0.000000 -1.000000
vn 0.000000 0.000000 -1.000000
vn 1.000000 0.000000 0.000000
vn 1.000000 -0.000000 0.000000
vn -0.999689 -0.024933 0.000000
vn -0.997204 -0.074731 0.000000
vn -0.999689 -0.024933 0.000000
vn -0.992240 -0.124338 0.000000
vn -0.997204 -0.074731 0.000000
vn -0.984807 -0.173653 0.000000
vn -0.992240 -0.124338 0.000000
vn -0.974929 -0.222518 0.000000
vn -0.984807 -0.173653 0.000000
vn -0.962625 -0.270839 0.000000
vn -0.974929 -0.222518 0.000000
vn -0.947927 -0.318487 0.000000
vn -0.962625 -0.270839 0.000000
vn -0.930874 -0.365340 0.000000
vn -0.947927 -0.318487 0.000000
vn -0.911505 -0.411288 0.000000
vn -0.930874 -0.365340 0.000000
vn -0.889871 -0.456213 0.000000
vn -0.911505 -0.411288 0.000000
vn -0.866026 -0.499998 0.000000
vn -0.889871 -0.456213 0.000000
vn -0.840024 -0.542549 0.000000
vn -0.866026 -0.499998 0.000000
vn -0.811939 -0.583742 0.000000
vn -0.840024 -0.542549 0.000000
vn -0.781833 -0.623487 0.000000
vn -0.811939 -0.583742 0.000000
vn -0.749778 -0.661690 0.000000
vn -0.781833 -0.623487 0.000000
vn -0.715869 -0.698234 0.000000
vn -0.749778 -0.661690 0.000000
vn -0.680173 -0.733051 0.000000
vn -0.715869 -0.698234 0.000000
vn -0.680173 -0.733051 0.000000
vn -0.642787 -0.766045 0.000000
vn -0.642787 -0.766045 0.000000
vn -0.603804 -0.797132 0.000000
vn -0.603804 -0.797132 0.000000
vn -0.563318 -0.826240 0.000000
vn -0.521438 -0.853289 0.000000
vn -0.563318 -0.826240 0.000000
vn -0.478253 -0.878222 0.000000
vn -0.521438 -0.853289 0.000000
vn -0.433883 -0.900969 0.000000
vn -0.478253 -0.878222 0.000000
vn -0.388437 -0.921475 0.000000
vn -0.433883 -0.900969 0.000000
vn -0.342020 -0.939693 0.000000
vn -0.388437 -0.921475 0.000000
vn -0.294754 -0.955573 0.000000
vn -0.342020 -0.939693 0.000000
vn -0.246756 -0.969078 0.000000
vn -0.294754 -0.955573 0.000000
vn -0.246756 -0.969078 0.000000
vn -0.198147 -0.980172 0.000000
vn -0.198147 -0.980172 0.000000
vn -0.149042 -0.988831 0.000000
vn -0.149042 -0.988831 0.000000
vn -0.099568 -0.995031 0.000000
vn -0.099568 -0.995031 0.000000
vn -0.049846 -0.998757 0.000000
vn -0.049846 -0.998757 0.000000
vn 0.000000 -1.000000 0.000000
vn 0.000000 -1.000000 0.000000
vn 0.049846 -0.998757 0.000000
vn 0.049846 -0.998757 0.000000
vn 0.099568 -0.995031 0.000000
vn 0.099568 -0.995031 0.000000
vn 0.149042 -0.988831 0.000000
vn 0.198147 -0.980172 0.000000
vn 0.149042 -0.988831 0.000000
vn 0.198147 -0.980172 0.000000
vn 0.246756 -0.969078 0.000000
vn 0.246756 -0.969078 0.000000
vn 0.294754 -0.955573 0.000000
vn 0.294754 -0.955573 0.000000
vn 0.342020 -0.939693 0.000000
vn 0.342020 -0.939693 0.000000
vn 0.433883 -0.900969 0.000000
vn 0.388437 -0.921475 0.000000
vn 0.388437 -0.921475 0.000000
vn 0.433883 -0.900969 0.000000
vn 0.478253 -0.878222 0.000000
vn 0.521438 -0.853289 0.000000
vn 0.478253 -0.878222 0.000000
vn 0.521438 -0.853289 0.000000
vn 0.563318 -0.826240 0.000000
vn 0.563318 -0.826240 0.000000
vn 0.603804 -0.797132 0.000000
vn 0.603804 -0.797132 0.000000
vn 0.642787 -0.766045 0.000000
vn 0.642787 -0.766045 0.000000
vn 0.680173 -0.733051 0.000000
vn 0.715869 -0.698234 0.000000
vn 0.680173 -0.733051 0.000000
vn 0.715869 -0.698234 0.000000
vn 0.749778 -0.661690 0.000000
vn 0.749778 -0.661690 0.000000
vn 0.781833 -0.623487 0.000000
vn 0.781833 -0.623487 0.000000
vn 0.811939 -0.583742 0.000000
vn 0.840024 -0.542549 0.000000
vn 0.811939 -0.583742 0.000000
vn 0.840024 -0.542549 0.000000
vn 0.866026 -0.499998 0.000000
vn 0.889871 -0.456213 0.000000
vn 0.866026 -0.499998 0.000000
vn 0.889871 -0.456213 0.000000
vn 0.911505 -0.411288 0.000000
vn 0.930874 -0.365340 0.000000
vn 0.911505 -0.411288 0.000000
vn 0.930874 -0.365340 0.000000
vn 0.947927 -0.318487 0.000000
vn 0.962625 -0.270839 0.000000
vn 0.947927 -0.318487 0.000000
vn 0.962625 -0.270839 0.000000
vn 0.974929 -0.222518 0.000000
vn 0.984807 -0.173653 0.000000
vn 0.974929 -0.222518 0.000000
vn 0.984807 -0.173653 0.000000
vn 0.992240 -0.124338 0.000000
vn 0.992240 -0.124338 0.000000
vn 0.997204 -0.074731 0.000000
vn 0.997204 -0.074731 0.000000
vn 0.999689 -0.024933 -0.000000
vn 0.999689 -0.024933 0.000000
vn 0.000000 0.000000 1.000000
vn 0.000000 0.000000 1.000000
vn 0.000000 0.000000 1.000000
vn 0.000000 0.000000 1.000000
vn 0.000000 0.000000 1.000000
vn 0.000000 0.000000 1.000000
vn 0.000000 0.000000 1.000000
vn 0.000000 0.000000 1.000000
vn 0.000000 0.000000 1.000000
vn 0.000000 0.000000 1.000000
vn 0.000000 0.000000 1.000000
vn 0.000000 0.000000 1.000000
vn 0.000000 0.000000 1.000000
vn 0.000000 0.000000 1.000000
vn 0.000000 0.000000 1.000000
vn 0.000000 0.000000 1.000000
vn 0.000000 0.000000 1.000000
vn 0.000000 0.000000 1.000000
vn 0.000000 0.000000 1.000000
vn 0.000000 0.000000 1.000000
vn 0.000000 0.000000 1.000000
vn 0.000000 0.000000 1.000000
vn 0.000000 0.000000 1.000000
vn 0.000000 0.000000 1.000000
vn 0.000000 0.000000 1.000000
vn 0.000000 0.000000 1.000000
vn 0.000000 0.000000 1.000000
vn 0.000000 0.000000 1.000000
vn 0.000000 0.000000 1.000000
vn 0.000000 0.000000 1.000000
vn 0.000000 0.000000 1.000000
vn 0.000000 0.000000 1.000000
vn 0.000000 0.000000 1.000000
vn 0.000000 0.000000 1.000000
vn 0.000000 0.000000 1.000000
vn 0.000000 0.000000 1.000000
vn 0.000000 0.000000 1.000000
vn 0.000000 0.000000 1.000000
vn 0.000000 0.000000 1.000000
vn 0.000000 0.000000 1.000000
vn 0.000000 0.000000 1.000000
vn 0.000000 0.000000 1.000000
vn 0.000000 0.000000 1.000000
vn 0.000000 0.000000 1.000000
vn 0.000000 0.000000 1.000000
vn 0.000000 0.000000 1.000000
vn 0.000000 0.000000 1.000000
vn 0.000000 0.000000 1.000000
vn 0.000000 0.000000 1.000000
vn 0.000000 0.000000 1.000000
vn 0.000000 0.000000 1.000000
vn 0.000000 0.000000 1.000000
vn 0.000000 0.000000 1.000000
vn 0.000000 0.000000 1.000000
vn 0.000000 0.000000 1.000000
vn 0.000000 0.000000 1.000000
vn 0.000000 0.000000 1.000000
vn 0.000000 0.000000 1.000000
vn 0.000000 0.000000 1.000000
vn 0.000000 0.000000 1.000000
vn 0.000000 0.000000 1.000000
vn 0.000000 0.000000 1.000000
g Hole001_5mm
f 1//1 2//1 3//1
f 3//2 2//2 4//2
f 5//3 6//3 1//3
f 1//4 6//4 2//4
f 7//5 2//5 8//5
f 9//6 8//6 2//6
f 10//7 2//7 7//7
f 11//8 9//8 2//8
f 12//9 2//9 10//9
f 13//10 11//10 2//10
f 14//11 2//11 12//11
f 15//12 13//12 2//12
f 16//13 2//13 14//13
f 17//14 15//14 2//14
f 18//15 2//15 16//15
f 19//16 17//16 2//16
f 20//17 2//17 18//17
f 21//18 19//18 2//18
f 22//19 2//19 20//19
f 23//20 21//20 2//20
f 24//21 2//21 22//21
f 25//22 23//22 2//22
f 26//23 2//23 24//23
f 27//24 25//24 2//24
f 28//25 2//25 26//25
f 29//26 27//26 2//26
f 30//27 2//27 28//27
f 31//28 29//28 2//28
f 32//29 2//29 30//29
f 33//30 31//30 2//30
f 34//31 2//31 32//31
f 35//32 33//32 2//32
f 36//33 2//33 34//33
f 37//34 35//34 2//34
f 38//35 2//35 36//35
f 39//36 37//36 2//36
f 4//37 38//37 40//37
f 4//38 40//38 41//38
f 4//39 41//39 42//39
f 4//40 42//40 43//40
f 4//41 43//41 44//41
f 4//42 44//42 45//42
f 4//43 45//43 46//43
f 4//44 46//44 47//44
f 4//45 47//45 48//45
f 4//46 48//46 49//46
f 4//47 49//47 50//47
f 4//48 50//48 51//48
f 4//49 51//49 52//49
f 4//50 52//50 53//50
f 4//51 53//51 54//51
f 4//52 2//52 38//52
f 6//53 55//53 56//53
f 6//54 56//54 57//54
f 6//55 57//55 58//55
f 6//56 58//56 59//56
f 6//57 39//57 2//57
f 6//58 59//58 60//58
f 6//59 60//59 61//59
f 6//60 61//60 62//60
f 6//61 62//61 63//61
f 6//62 63//62 64//62
f 6//63 64//63 65//63
f 6//64 65//64 66//64
f 6//65 66//65 67//65
f 6//66 67//66 68//66
f 6//67 68//67 69//67
f 6//68 69//68 39//68
f 70//69 4//69 54//69
f 71//70 55//70 6//70
f 72//71 4//71 70//71
f 73//72 71//72 6//72
f 74//73 4//73 72//73
f 75//74 73//74 6//74
f 76//75 4//75 74//75
f 77//76 75//76 6//76
f 78//77 4//77 76//77
f 79//78 77//78 6//78
f 80//79 4//79 78//79
f 81//80 79//80 6//80
f 82//81 4//81 80//81
f 83//82 81//82 6//82
f 84//83 4//83 82//83
f 85//84 83//84 6//84
f 86//85 4//85 84//85
f 87//86 85//86 6//86
f 88//87 4//87 86//87
f 89//88 87//88 6//88
f 90//89 4//89 88//89
f 91//90 89//90 6//90
f 92//91 4//91 90//91
f 93//92 91//92 6//92
f 94//93 4//93 92//93
f 95//94 93//94 6//94
f 96//95 4//95 94//95
f 97//96 95//96 6//96
f 98//97 4//97 96//97
f 99//98 97//98 6//98
f 100//99 4//99 98//99
f 101//100 99//100 6//100
f 102//101 4//101 100//101
f 102//102 101//102 6//102
f 102//103 100//103 103//103
f 102//104 103//104 104//104
f 102//105 104//105 105//105
f 102//106 105//106 106//106
f 102//107 106//107 107//107
f 102//108 107//108 108//108
f 102//109 108//109 109//109
f 102//110 109//110 110//110
f 102//111 110//111 111//111
f 102//112 111//112 112//112
f 102//113 112//113 113//113
f 102//114 113//114 114//114
f 102//115 114//115 115//115
f 102//116 115//116 116//116
f 102//117 116//117 117//117
f 102//118 117//118 118//118
f 102//119 118//119 119//119
f 102//120 119//120 120//120
f 102//121 120//121 121//121
f 102//122 121//122 122//122
f 102//123 122//123 123//123
f 102//124 123//124 124//124
f 102//125 124//125 125//125
f 102//126 125//126 126//126
f 102//127 126//127 127//127
f 102//128 127//128 128//128
f 102//129 128//129 129//129
f 102//130 129//130 130//130
f 102//131 130//131 131//131
f 102//132 131//132 132//132
f 102//133 132//133 133//133
f 102//134 133//134 101//134
f 102//135 134//135 3//135
f 102//136 3//136 4//136
f 1//137 135//137 136//137
f 136//138 137//138 1//138
f 1//139 138//139 135//139
f 137//140 139//140 1//140
f 1//141 140//141 138//141
f 139//142 141//142 1//142
f 1//143 142//143 140//143
f 141//144 143//144 1//144
f 1//145 144//145 142//145
f 143//146 145//146 1//146
f 1//147 146//147 144//147
f 145//148 147//148 1//148
f 1//149 148//149 146//149
f 147//150 149//150 1//150
f 1//151 150//151 148//151
f 149//152 151//152 1//152
f 1//153 152//153 150//153
f 151//154 153//154 1//154
f 1//155 154//155 152//155
f 153//156 155//156 1//156
f 1//157 156//157 154//157
f 155//158 157//158 1//158
f 1//159 158//159 156//159
f 157//160 159//160 1//160
f 1//161 160//161 158//161
f 159//162 161//162 1//162
f 1//163 162//163 160//163
f 161//164 163//164 1//164
f 1//165 164//165 162//165
f 163//166 165//166 1//166
f 1//167 166//167 164//167
f 165//168 167//168 1//168
f 166//169 3//169 168//169
f 168//170 3//170 169//170
f 169//171 3//171 170//171
f 170//172 3//172 171//172
f 171//173 3//173 172//173
f 172//174 3//174 173//174
f 173//175 3//175 174//175
f 174//176 3//176 175//176
f 175//177 3//177 176//177
f 176//178 3//178 177//178
f 177//179 3//179 178//179
f 178//180 3//180 179//180
f 179//181 3//181 180//181
f 180//182 3//182 181//182
f 181//183 3//183 182//183
f 1//184 3//184 166//184
f 183//185 5//185 184//185
f 184//186 5//186 185//186
f 185//187 5//187 186//187
f 186//188 5//188 187//188
f 167//189 5//189 1//189
f 187//190 5//190 188//190
f 188//191 5//191 189//191
f 189//192 5//192 190//192
f 190//193 5//193 191//193
f 191//194 5//194 192//194
f 192//195 5//195 193//195
f 193//196 5//196 194//196
f 194//197 5//197 195//197
f 195//198 5//198 196//198
f 196//199 5//199 197//199
f 197//200 5//200 167//200
f 3//201 198//201 182//201
f 183//202 199//202 5//202
f 3//203 200//203 198//203
f 199//204 201//204 5//204
f 3//205 202//205 200//205
f 201//206 203//206 5//206
f 3//207 204//207 202//207
f 203//208 205//208 5//208
f 3//209 206//209 204//209
f 205//210 207//210 5//210
f 3//211 208//211 206//211
f 207//212 209//212 5//212
f 3//213 210//213 208//213
f 209//214 211//214 5//214
f 3//215 212//215 210//215
f 211//216 213//216 5//216
f 3//217 214//217 212//217
f 213//218 215//218 5//218
f 3//219 216//219 214//219
f 215//220 217//220 5//220
f 3//221 218//221 216//221
f 217//222 219//222 5//222
f 3//223 220//223 218//223
f 219//224 221//224 5//224
f 3//225 222//225 220//225
f 221//226 223//226 5//226
f 3//227 224//227 222//227
f 223//228 225//228 5//228
f 3//229 226//229 224//229
f 225//230 227//230 5//230
f 3//231 228//231 226//231
f 227//232 229//232 5//232
f 3//233 134//233 228//233
f 229//234 134//234 5//234
f 228//235 134//235 230//235
f 230//236 134//236 231//236
f 231//237 134//237 232//237
f 232//238 134//238 233//238
f 233//239 134//239 234//239
f 234//240 134//240 235//240
f 235//241 134//241 236//241
f 236//242 134//242 237//242
f 237//243 134//243 238//243
f 238//244 134//244 239//244
f 239//245 134//245 240//245
f 240//246 134//246 241//246
f 241//247 134//247 242//247
f 242//248 134//248 243//248
f 243//249 134//249 244//249
f 244//250 134//250 245//250
f 245//251 134//251 246//251
f 246//252 134//252 247//252
f 247//253 134//253 248//253
f 248//254 134//254 249//254
f 249//255 134//255 250//255
f 250//256 134//256 251//256
f 251//257 134//257 252//257
f 252//258 134//258 253//258
f 253//259 134//259 254//259
f 254//260 134//260 255//260
f 255//261 134//261 256//261
f 256//262 134//262 257//262
f 257//263 134//263 258//263
f 258//264 134//264 259//264
f 259//265 134//265 260//265
f 260//266 134//266 229//266
f 6//267 5//267 134//267
f 6//268 134//268 102//268
f 166//269 168//269 38//269
f 38//270 168//270 40//270
f 40//271 169//271 41//271
f 168//272 169//272 40//272
f 41//273 170//273 42//273
f 42//274 170//274 43//274
f 169//275 170//275 41//275
f 170//276 171//276 43//276
f 43//277 172//277 44//277
f 171//278 172//278 43//278
f 44//279 173//279 45//279
f 45//280 173//280 46//280
f 172//281 173//281 44//281
f 46//282 174//282 47//282
f 173//283 174//283 46//283
f 174//284 175//284 47//284
f 47//285 176//285 48//285
f 175//286 176//286 47//286
f 48//287 177//287 49//287
f 176//288 177//288 48//288
f 177//289 178//289 49//289
f 49//290 178//290 50//290
f 178//291 179//291 50//291
f 50//292 179//292 51//292
f 179//293 180//293 51//293
f 51//294 180//294 52//294
f 180//295 181//295 52//295
f 52//296 181//296 53//296
f 181//297 182//297 53//297
f 53//298 182//298 54//298
f 182//299 198//299 54//299
f 54//300 198//300 70//300
f 198//301 200//301 70//301
f 70//302 200//302 72//302
f 200//303 202//303 72//303
f 72//304 202//304 74//304
f 74//305 202//305 76//305
f 202//306 204//306 76//306
f 76//307 204//307 78//307
f 204//308 206//308 78//308
f 206//309 208//309 78//309
f 78//310 208//310 80//310
f 80//311 208//311 82//311
f 208//312 210//312 82//312
f 82//313 212//313 84//313
f 210//314 212//314 82//314
f 84//315 214//315 86//315
f 212//316 214//316 84//316
f 86//317 216//317 88//317
f 214//318 216//318 86//318
f 88//319 218//319 90//319
f 90//320 218//320 92//320
f 216//321 218//321 88//321
f 92//322 220//322 94//322
f 218//323 220//323 92//323
f 220//324 222//324 94//324
f 94//325 224//325 96//325
f 222//326 224//326 94//326
f 96//327 226//327 98//327
f 224//328 226//328 96//328
f 98//329 228//329 100//329
f 226//330 228//330 98//330
f 100//331 230//331 103//331
f 228//332 230//332 100//332
f 103//333 231//333 104//333
f 230//334 231//334 103//334
f 104//335 232//335 105//335
f 105//336 232//336 106//336
f 231//337 232//337 104//337
f 232//338 233//338 106//338
f 233//339 234//339 106//339
f 106//340 234//340 107//340
f 107//341 234//341 108//341
f 234//342 235//342 108//342
f 108//343 235//343 109//343
f 235//344 236//344 109//344
f 236//345 237//345 109//345
f 109//346 237//346 110//346
f 237//347 238//347 110//347
f 110//348 238//348 111//348
f 238//349 239//349 111//349
f 111//350 239//350 112//350
f 239//351 240//351 112//351
f 112//352 240//352 113//352
f 240//353 241//353 113//353
f 113//354 241//354 114//354
f 241//355 242//355 114//355
f 114//356 242//356 115//356
f 242//357 243//357 115//357
f 115//358 243//358 116//358
f 243//359 244//359 116//359
f 116//360 244//360 117//360
f 244//361 245//361 117//361
f 117//362 245//362 118//362
f 118//363 245//363 119//363
f 245//364 246//364 119//364
f 246//365 247//365 119//365
f 119//366 247//366 120//366
f 120//367 247//367 121//367
f 247//368 248//368 121//368
f 248//369 249//369 121//369
f 121//370 249//370 122//370
f 249//371 250//371 122//371
f 122//372 250//372 123//372
f 250//373 251//373 123//373
f 123//374 251//374 124//374
f 251//375 252//375 124//375
f 124//376 252//376 125//376
f 125//377 252//377 126//377
f 252//378 253//378 126//378
f 253//379 254//379 126//379
f 126//380 254//380 127//380
f 254//381 255//381 127//381
f 127//382 255//382 128//382
f 128//383 256//383 129//383
f 255//384 256//384 128//384
f 129//385 257//385 130//385
f 256//386 257//386 129//386
f 130//387 258//387 131//387
f 257//388 258//388 130//388
f 131//389 259//389 132//389
f 258//390 259//390 131//390
f 259//391 260//391 132//391
f 132//392 260//392 133//392
f 260//393 229//393 133//393
f 133//394 229//394 101//394
f 229//395 227//395 101//395
f 101//396 227//396 99//396
f 227//397 225//397 99//397
f 99//398 225//398 97//398
f 225//399 223//399 97//399
f 97//400 223//400 95//400
f 223//401 221//401 95//401
f 95//402 221//402 93//402
f 221//403 219//403 93//403
f 93//404 219//404 91//404
f 219//405 217//405 91//405
f 91//406 217//406 89//406
f 217//407 215//407 89//407
f 89//408 215//408 87//408
f 215//409 213//409 87//409
f 87//410 213//410 85//410
f 213//411 211//411 85//411
f 85//412 211//412 83//412
f 211//413 209//413 83//413
f 83//414 209//414 81//414
f 79//415 207//415 77//415
f 209//416 207//416 81//416
f 81//417 207//417 79//417
f 207//418 205//418 77//418
f 77//419 203//419 75//419
f 205//420 203//420 77//420
f 75//421 201//421 73//421
f 203//422 201//422 75//422
f 73//423 199//423 71//423
f 201//424 199//424 73//424
f 71//425 183//425 55//425
f 199//426 183//426 71//426
f 55//427 184//427 56//427
f 183//428 184//428 55//428
f 56//429 185//429 57//429
f 184//430 185//430 56//430
f 57//431 186//431 58//431
f 58//432 186//432 59//432
f 185//433 186//433 57//433
f 186//434 187//434 59//434
f 59//435 188//435 60//435
f 187//436 188//436 59//436
f 60//437 189//437 61//437
f 188//438 189//438 60//438
f 61//439 190//439 62//439
f 62//440 190//440 63//440
f 189//441 190//441 61//441
f 190//442 191//442 63//442
f 191//443 192//443 63//443
f 63//444 192//444 64//444
f 192//445 193//445 64//445
f 64//446 193//446 65//446
f 193//447 194//447 65//447
f 65//448 194//448 66//448
f 194//449 195//449 66//449
f 66//450 195//450 67//450
f 67//451 196//451 68//451
f 195//452 196//452 67//452
f 68//453 197//453 69//453
f 69//454 197//454 39//454
f 196//455 197//455 68//455
f 197//456 167//456 39//456
f 39//457 165//457 37//457
f 167//458 165//458 39//458
f 37//459 163//459 35//459
f 165//460 163//460 37//460
f 35//461 161//461 33//461
f 163//462 161//462 35//462
f 33//463 159//463 31//463
f 161//464 159//464 33//464
f 31//465 157//465 29//465
f 159//466 157//466 31//466
f 29//467 155//467 27//467
f 157//468 155//468 29//468
f 27//469 153//469 25//469
f 155//470 153//470 27//470
f 25//471 151//471 23//471
f 153//472 151//472 25//472
f 23//473 149//473 21//473
f 151//474 149//474 23//474
f 21//475 147//475 19//475
f 149//476 147//476 21//476
f 19//477 145//477 17//477
f 147//478 145//478 19//478
f 17//479 143//479 15//479
f 145//480 143//480 17//480
f 15//481 141//481 13//481
f 143//482 141//482 15//482
f 13//483 139//483 11//483
f 11//484 139//484 9//484
f 141//485 139//485 13//485
f 139//486 137//486 9//486
f 9//487 136//487 8//487
f 8//488 136//488 7//488
f 137//489 136//489 9//489
f 136//490 135//490 7//490
f 135//491 138//491 7//491
f 7//492 138//492 10//492
f 10//493 138//493 12//493
f 138//494 140//494 12//494
f 140//495 142//495 12//495
f 12//496 142//496 14//496
f 142//497 144//497 14//497
f 14//498 144//498 16//498
f 144//499 146//499 16//499
f 16//500 146//500 18//500
f 146//501 148//501 18//501
f 18//502 148//502 20//502
f 148//503 150//503 20//503
f 20//504 150//504 22//504
f 22//505 150//505 24//505
f 150//506 152//506 24//506
f 152//507 154//507 24//507
f 24//508 154//508 26//508
f 26//509 154//509 28//509
f 154//510 156//510 28//510
f 156//511 158//511 28//511
f 28//512 158//512 30//512
f 30//513 158//513 32//513
f 158//514 160//514 32//514
f 32//515 162//515 34//515
f 160//516 162//516 32//516
f 34//517 164//517 36//517
f 162//518 164//518 34//518
f 36//519 166//519 38//519
f 164//520 166//520 36//520
g Hole20mm_face3
f 261//521 262//521 263//521
f 263//522 262//522 264//522
f 265//523 262//523 261//523
f 261//524 266//524 265//524
f 266//525 267//525 265//525
f 265//526 268//526 262//526
f 267//527 269//527 270//527
f 266//528 269//528 267//528
f 271//529 262//529 268//529
f 272//530 262//530 271//530
f 273//531 262//531 272//531
f 274//532 262//532 273//532
f 275//533 262//533 274//533
f 276//534 262//534 275//534
f 277//535 262//535 276//535
f 278//536 262//536 277//536
f 279//537 262//537 278//537
f 280//538 262//538 279//538
f 281//539 262//539 280//539
f 282//540 262//540 281//540
f 283//541 262//541 282//541
f 284//542 262//542 283//542
f 285//543 262//543 284//543
f 286//544 262//544 285//544
f 287//545 262//545 286//545
f 288//546 262//546 287//546
f 289//547 262//547 288//547
f 264//548 262//548 289//548
f 264//549 289//549 290//549
f 264//550 290//550 291//550
f 264//551 291//551 292//551
f 264//552 292//552 293//552
f 264//553 293//553 294//553
f 264//554 294//554 295//554
f 264//555 295//555 296//555
f 264//556 296//556 297//556
f 264//557 297//557 298//557
f 264//558 298//558 299//558
f 264//559 299//559 300//559
f 264//560 300//560 301//560
f 264//561 301//561 302//561
f 269//562 303//562 304//562
f 269//563 304//563 305//563
f 269//564 305//564 306//564
f 269//565 306//565 307//565
f 269//566 307//566 308//566
f 269//567 308//567 309//567
f 269//568 309//568 310//568
f 269//569 310//569 311//569
f 269//570 311//570 312//570
f 269//571 312//571 313//571
f 269//572 313//572 314//572
f 269//573 314//573 315//573
f 269//574 315//574 316//574
f 269//575 316//575 317//575
f 269//576 317//576 318//576
f 269//577 318//577 319//577
f 269//578 319//578 320//578
f 269//579 320//579 321//579
f 269//580 321//580 270//580
f 322//581 302//581 323//581
f 322//582 323//582 324//582
f 322//583 324//583 325//583
f 322//584 325//584 326//584
f 322//585 326//585 327//585
f 322//586 327//586 328//586
f 322//587 328//587 329//587
f 322//588 329//588 330//588
f 322//589 330//589 331//589
f 322//590 331//590 332//590
f 322//591 332//591 333//591
f 322//592 333//592 303//592
f 322//593 264//593 302//593
f 322//594 303//594 269//594
f 322//595 334//595 263//595
f 322//596 263//596 264//596
f 263//597 334//597 261//597
f 261//598 334//598 266//598
f 269//599 266//599 334//599
f 269//600 334//600 322//600
f 267//601 270//601 321//601
f 335//602 321//602 320//602
f 335//603 267//603 321//603
f 336//604 320//604 319//604
f 336//605 335//605 320//605
f 337//606 319//606 318//606
f 337//607 336//607 319//607
f 338//608 318//608 317//608
f 338//609 337//609 318//609
f 339//610 317//610 316//610
f 339//611 338//611 317//611
f 340//612 316//612 315//612
f 340//613 339//613 316//613
f 341//614 315//614 314//614
f 341//615 340//615 315//615
f 342//616 314//616 313//616
f 342//617 341//617 314//617
f 343//618 313//618 312//618
f 343//619 342//619 313//619
f 344//620 312//620 311//620
f 344//621 343//621 312//621
f 345//622 311//622 310//622
f 345//623 344//623 311//623
f 346//624 310//624 309//624
f 346//625 345//625 310//625
f 347//626 309//626 308//626
f 347//627 346//627 309//627
f 348//628 308//628 307//628
f 348//629 347//629 308//629
f 349//630 307//630 306//630
f 349//631 348//631 307//631
f 350//632 306//632 305//632
f 350//633 349//633 306//633
f 351//634 350//634 305//634
f 351//635 305//635 304//635
f 352//636 351//636 304//636
f 352//637 304//637 303//637
f 353//638 352//638 303//638
f 353//639 303//639 333//639
f 354//640 333//640 332//640
f 354//641 353//641 333//641
f 355//642 332//642 331//642
f 355//643 354//643 332//643
f 356//644 331//644 330//644
f 356//645 355//645 331//645
f 357//646 330//646 329//646
f 357//647 356//647 330//647
f 358//648 329//648 328//648
f 358//649 357//649 329//649
f 359//650 328//650 327//650
f 359//651 358//651 328//651
f 360//652 327//652 326//652
f 360//653 359//653 327//653
f 361//654 360//654 326//654
f 361//655 326//655 325//655
f 362//656 361//656 325//656
f 362//657 325//657 324//657
f 363//658 362//658 324//658
f 363//659 324//659 323//659
f 364//660 363//660 323//660
f 364//661 323//661 302//661
f 365//662 364//662 302//662
f 365//663 302//663 301//663
f 366//664 365//664 301//664
f 366//665 301//665 300//665
f 367//666 366//666 300//666
f 367//667 300//667 299//667
f 368//668 367//668 299//668
f 369//669 368//669 299//669
f 369//670 298//670 297//670
f 369//671 299//671 298//671
f 370//672 369//672 297//672
f 370//673 297//673 296//673
f 371//674 370//674 296//674
f 371//675 296//675 295//675
f 372//676 371//676 295//676
f 372//677 295//677 294//677
f 373//678 372//678 294//678
f 374//679 293//679 292//679
f 374//680 294//680 293//680
f 374//681 373//681 294//681
f 375//682 374//682 292//682
f 376//683 375//683 292//683
f 376//684 291//684 290//684
f 376//685 292//685 291//685
f 377//686 376//686 290//686
f 378//687 377//687 290//687
f 378//688 290//688 289//688
f 379//689 378//689 289//689
f 379//690 289//690 288//690
f 380//691 379//691 288//691
f 380//692 288//692 287//692
f 381//693 380//693 287//693
f 381//694 286//694 285//694
f 381//695 287//695 286//695
f 382//696 381//696 285//696
f 382//697 285//697 284//697
f 383//698 382//698 284//698
f 383//699 284//699 283//699
f 384//700 383//700 283//700
f 385//701 384//701 283//701
f 385//702 282//702 281//702
f 385//703 283//703 282//703
f 386//704 385//704 281//704
f 387//705 386//705 281//705
f 387//706 280//706 279//706
f 387//707 281//707 280//707
f 388//708 387//708 279//708
f 389//709 388//709 279//709
f 389//710 278//710 277//710
f 389//711 279//711 278//711
f 390//712 389//712 277//712
f 391//713 390//713 277//713
f 391//714 276//714 275//714
f 391//715 277//715 276//715
f 392//716 391//716 275//716
f 393//717 392//717 275//717
f 393//718 274//718 273//718
f 393//719 275//719 274//719
f 394//720 393//720 273//720
f 395//721 273//721 272//721
f 395//722 394//722 273//722
f 396//723 272//723 271//723
f 396//724 395//724 272//724
f 265//725 271//725 268//725
f 265//726 396//726 271//726
f 394//727 395//727 396//727
f 392//728 393//728 394//728
f 390//729 391//729 392//729
f 390//730 392//730 394//730
f 388//731 389//731 390//731
f 385//732 386//732 387//732
f 385//733 387//733 388//733
f 383//734 384//734 385//734
f 383//735 396//735 265//735
f 383//736 394//736 396//736
f 383//737 390//737 394//737
f 383//738 388//738 390//738
f 383//739 385//739 388//739
f 382//740 383//740 265//740
f 380//741 381//741 382//741
f 378//742 380//742 382//742
f 378//743 379//743 380//743
f 378//744 382//744 265//744
f 375//745 376//745 377//745
f 375//746 377//746 378//746
f 374//747 375//747 378//747
f 372//748 373//748 374//748
f 371//749 378//749 265//749
f 371//750 374//750 378//750
f 371//751 372//751 374//751
f 369//752 370//752 371//752
f 367//753 368//753 369//753
f 366//754 367//754 369//754
f 365//755 366//755 369//755
f 365//756 369//756 371//756
f 335//757 265//757 267//757
f 363//758 364//758 365//758
f 337//759 335//759 336//759
f 339//760 337//760 338//760
f 339//761 335//761 337//761
f 359//762 360//762 361//762
f 359//763 365//763 371//763
f 359//764 361//764 362//764
f 359//765 362//765 363//765
f 359//766 363//766 365//766
f 341//767 339//767 340//767
f 342//768 339//768 341//768
f 344//769 342//769 343//769
f 344//770 335//770 339//770
f 344//771 339//771 342//771
f 354//772 355//772 356//772
f 354//773 356//773 357//773
f 354//774 357//774 358//774
f 354//775 358//775 359//775
f 353//776 371//776 265//776
f 353//777 359//777 371//777
f 353//778 354//778 359//778
f 347//779 344//779 345//779
f 347//780 345//780 346//780
f 348//781 335//781 344//781
f 348//782 344//782 347//782
f 351//783 352//783 353//783
f 350//784 348//784 349//784
f 350//785 265//785 335//785
f 350//786 353//786 265//786
f 350//787 335//787 348//787
f 350//788 351//788 353//788
